<svg xmlns="http://www.w3.org/2000/svg" width="32" height="32" viewBox="0 0 98.385 98.385"><path d="M61.84 54.8c-0.79 0-1.33 0.05-1.61 0.13v5.09c0.33 0.08 0.74 0.1 1.3 0.1 2.07 0 3.35-1.05 3.35-2.78C64.88 55.75 63.81 54.8 61.84 54.8zM53.16 31.68c-2.19-2.19-5.73-2.19-7.92 0L20.36 56.56c-2.19 2.19-2.19 5.73 0 7.92l24.88 24.88c2.19 2.19 5.73 2.19 7.92 0l24.88-24.88c1.05-1.05 1.64-2.48 1.64-3.96s-0.59-2.91-1.64-3.96L53.16 31.68zM40.15 55.16h-6.62v3.94h6.18v3.17h-6.18v6.93h-3.88V51.97h10.5V55.16zM55.03 55.24h-4.7v13.95H46.44V55.24h-4.65v-3.27h13.24V55.24zM67.18 61.29c-1.33 1.23-3.32 1.82-5.62 1.82 -0.51 0-0.97-0.02-1.33-0.1v6.18h-3.86V52.2c1.2-0.2 2.89-0.36 5.26-0.36 2.4 0 4.14 0.46 5.29 1.41 1.1 0.85 1.81 2.27 1.81 3.96C68.74 58.92 68.2 60.35 67.18 61.29zM78.44 22.43c-0.55-0.04-1.05-0.32-1.37-0.76 -4-5.54-10.51-8.98-17.44-8.98 -0.5 0-1 0.02-1.51 0.05 -0.45 0.03-0.9-0.1-1.25-0.38 -4.2-3.23-9.31-4.98-14.67-4.98 -9.58 0-18.07 5.61-21.94 14.09 -0.27 0.58-0.82 0.99-1.45 1.07C8.22 23.87 0 32.93 0 43.87c0 9.7 6.46 17.91 15.3 20.57 -0.53-1.23-0.82-2.55-0.82-3.93 0-1.77 0.47-3.45 1.34-4.94 -4.34-2.11-7.35-6.56-7.35-11.71 0-7.18 5.84-13.02 13.03-13.02 0.36 0 0.72 0.03 1.07 0.06 2.07 0.16 3.94-1.18 4.45-3.19 1.75-6.98 8-11.85 15.18-11.85 4.11 0 7.99 1.59 10.94 4.47 1.01 0.98 2.44 1.4 3.82 1.11 0.88-0.18 1.78-0.28 2.67-0.28 5.03 0 9.52 2.83 11.72 7.38 0.77 1.6 2.46 2.55 4.23 2.37 0.44-0.04 0.88-0.07 1.31-0.07 7.18 0 13.03 5.84 13.03 13.02 0 5.15-3.01 9.59-7.35 11.71 0.87 1.48 1.34 3.17 1.34 4.94 0 1.38-0.29 2.71-0.82 3.93 8.84-2.67 15.3-10.88 15.3-20.57C98.39 32.54 89.58 23.23 78.44 22.43z"  fill="#fff"/></svg>